<svg xmlns="http://www.w3.org/2000/svg" xmlns:xlink="http://www.w3.org/1999/xlink" width="49.498" height="49.498" viewBox="0 0 49.498 49.498">
  <defs>
    <linearGradient id="linear-gradient" x1="0.5" x2="0.5" y2="1" gradientUnits="objectBoundingBox">
      <stop offset="0" stop-color="#548af2"/>
      <stop offset="1" stop-color="#3acec0"/>
    </linearGradient>
  </defs>
  <path id="Chat_Icon" data-name="Chat Icon" d="M24.749,49.5a24.638,24.638,0,0,1-12.177-3.221,5.441,5.441,0,0,0-2.739-1.05,3,3,0,0,0-.947.157l-5,1.488a1.865,1.865,0,0,1-.56.088,1.533,1.533,0,0,1-1.237-.592,1.6,1.6,0,0,1-.232-1.43l1.659-5.553a2.588,2.588,0,0,0-.174-2.23A26.151,26.151,0,0,1,0,24.787,25.139,25.139,0,0,1,7.007,7.5,24.477,24.477,0,0,1,24.8,0,24.416,24.416,0,0,1,42.42,7.411a24.665,24.665,0,0,1,7.079,17.3,25.092,25.092,0,0,1-2.141,10.325,23.755,23.755,0,0,1-5.63,7.8A25.355,25.355,0,0,1,24.749,49.5ZM36.109,21.64a3.172,3.172,0,1,0,3.167,3.172A3.173,3.173,0,0,0,36.109,21.64Zm-11.456,0a3.138,3.138,0,0,0-3.12,3.148A3.167,3.167,0,1,0,24.7,21.64h-.047Zm-11.362,0a3.172,3.172,0,1,0,3.167,3.172A3.174,3.174,0,0,0,13.291,21.64Z" fill="url(#linear-gradient)"/>
</svg>
