<svg xmlns="http://www.w3.org/2000/svg" width="18.826" height="18" viewBox="0 0 18.826 18">
  <g id="_-favourite-star" data-name="-favourite-star" transform="translate(0 -0.991)">
    <path id="Path_296" data-name="Path 296" d="M18.795,7.832a.841.841,0,0,0-.8-.612H12.042l-1.7-5.231c-.043-.13-.085-.261-.127-.391a.028.028,0,0,1,0-.006.875.875,0,0,0-.385-.487L9.817,1.1a.819.819,0,0,0-.11-.051c-.015-.006-.03-.013-.046-.018s-.018-.009-.028-.011-.037-.005-.055-.009A.789.789,0,0,0,9.49.993c-.022,0-.044,0-.067,0a.812.812,0,0,0-.1,0C9.3,1,9.286,1,9.268,1s-.051.006-.077.013-.026.011-.039.015l-.012,0a.868.868,0,0,0-.527.555l0,.007Q7.7,4.41,6.782,7.221H.834a.841.841,0,0,0-.8.612.857.857,0,0,0,.383.941l4.745,3.447Q4.3,14.874,3.434,17.527l-.127.391c-.215.66.627,1.374,1.224.941l4.882-3.547,4.55,3.306.332.241a.839.839,0,0,0,1.224-.941q-.925-2.849-1.851-5.7L18.08,9.015l.332-.242A.856.856,0,0,0,18.795,7.832ZM9.833,13.567a.807.807,0,0,0-.842,0l-3.3,2.4,1.12-3.446.127-.391a.849.849,0,0,0-.383-.941l-3.165-2.3h4a.848.848,0,0,0,.8-.612L9.412,4.514q.547,1.685,1.095,3.37c.042.13.084.26.127.391a.848.848,0,0,0,.8.612h4L12.6,10.944l-.333.242a.849.849,0,0,0-.383.941q.623,1.919,1.247,3.838l-2.967-2.156Z" fill="#010002"/>
  </g>
</svg>
