<svg id="comments" xmlns="http://www.w3.org/2000/svg" width="61.785" height="60.82" viewBox="0 0 61.785 60.82">
  <path id="Path_188" data-name="Path 188" d="M126.214,3.645h-34.4A8.182,8.182,0,0,0,83.655,11.8v2.776h31.118a8.182,8.182,0,0,1,8.158,8.158V43.076h3.282a8.182,8.182,0,0,0,8.158-8.158V11.8a8.182,8.182,0,0,0-8.158-8.158Z" transform="translate(-72.587 -3.645)" fill="#6c7ed6"/>
  <path id="Path_189" data-name="Path 189" d="M120.43,83.472h-34.4a8.089,8.089,0,0,0-2.374.355v.018h31.118A8.182,8.182,0,0,1,122.931,92v20.339h3.282a8.089,8.089,0,0,0,2.374-.356V91.63a8.182,8.182,0,0,0-8.158-8.158Z" transform="translate(-72.587 -72.91)" fill="#4f67d2"/>
  <path id="Path_190" data-name="Path 190" d="M42.559,83.472H8.158A8.182,8.182,0,0,0,0,91.63v23.115A8.182,8.182,0,0,0,8.158,122.9H28.8a1.376,1.376,0,0,1,1.343,1.685,34.565,34.565,0,0,1-2.624,7.323,1.254,1.254,0,0,0,1.784,1.624,46.024,46.024,0,0,0,11.252-9.692,2.58,2.58,0,0,1,2-.94,8.182,8.182,0,0,0,8.158-8.158V91.63a8.182,8.182,0,0,0-8.158-8.158Z" transform="translate(0 -72.91)" fill="#60b8fe"/>
  <path id="Path_191" data-name="Path 191" d="M215.062,383.2a1.376,1.376,0,0,0-1.343-1.685h-5.283a1.376,1.376,0,0,1,1.343,1.685,34.565,34.565,0,0,1-2.624,7.323,1.254,1.254,0,0,0,1.784,1.623c1.192-.738,2.578-1.667,4.044-2.789A34.437,34.437,0,0,0,215.062,383.2Z" transform="translate(-179.63 -331.522)" fill="#23a8fe"/>
  <path id="Path_192" data-name="Path 192" d="M5.283,114.745V91.63a8.182,8.182,0,0,1,8.158-8.158H8.158A8.182,8.182,0,0,0,0,91.63v23.115A8.182,8.182,0,0,0,8.158,122.9h5.283a8.182,8.182,0,0,1-8.158-8.158Z" transform="translate(0 -72.91)" fill="#23a8fe"/>
  <g id="Group_74" data-name="Group 74" transform="translate(8.602 28.234)">
    <circle id="Ellipse_32" data-name="Ellipse 32" cx="2.707" cy="2.707" r="2.707" fill="#dfebfa"/>
    <circle id="Ellipse_33" data-name="Ellipse 33" cx="2.707" cy="2.707" r="2.707" transform="translate(8.744)" fill="#dfebfa"/>
    <circle id="Ellipse_34" data-name="Ellipse 34" cx="2.707" cy="2.707" r="2.707" transform="translate(17.488)" fill="#dfebfa"/>
    <circle id="Ellipse_35" data-name="Ellipse 35" cx="2.707" cy="2.707" r="2.707" transform="translate(26.232)" fill="#dfebfa"/>
  </g>
  <path id="Path_193" data-name="Path 193" d="M67.722,219.755a2.705,2.705,0,0,1,1.354-2.344,2.707,2.707,0,1,0,0,4.688A2.705,2.705,0,0,1,67.722,219.755Z" transform="translate(-56.414 -188.815)" fill="#b1dbfc"/>
  <path id="Path_194" data-name="Path 194" d="M133.814,219.755a2.706,2.706,0,0,1,1.354-2.344,2.707,2.707,0,1,0,0,4.688A2.705,2.705,0,0,1,133.814,219.755Z" transform="translate(-113.761 -188.815)" fill="#b1dbfc"/>
  <path id="Path_195" data-name="Path 195" d="M199.9,219.755a2.706,2.706,0,0,1,1.354-2.344,2.707,2.707,0,1,0,0,4.688A2.705,2.705,0,0,1,199.9,219.755Z" transform="translate(-171.108 -188.815)" fill="#b1dbfc"/>
  <path id="Path_196" data-name="Path 196" d="M266,219.755a2.705,2.705,0,0,1,1.354-2.344,2.707,2.707,0,1,0,0,4.688A2.705,2.705,0,0,1,266,219.755Z" transform="translate(-228.455 -188.815)" fill="#b1dbfc"/>
</svg>
