<svg xmlns="http://www.w3.org/2000/svg" width="30.06" height="31.116" viewBox="0 0 30.06 31.116">
  <g id="arrow" transform="translate(0 21.486) rotate(-56)">
    <path id="Path_181" data-name="Path 181" d="M33.739,99.518l-11.112,6.33a.661.661,0,0,1-1-.567V102.63l-.523-.078a21.164,21.164,0,0,1-4.281-1.082,13.612,13.612,0,0,1-6.269-4.438A11.675,11.675,0,0,1,8.3,89.373v-.008a.909.909,0,0,1,.941-.85h.031a.909.909,0,0,1,.85.686l0,.02a9.572,9.572,0,0,0,1.352,2.991,7.556,7.556,0,0,0,4.429,3.069,13.317,13.317,0,0,0,5.541.02l.172-.03V92.621a.661.661,0,0,1,1-.567l11.112,6.329A.661.661,0,0,1,33.739,99.518Z" transform="translate(-7.852 -88.083)" fill="#7dd2f0"/>
    <path id="Path_182" data-name="Path 182" d="M113.637,80.22a1.1,1.1,0,0,0-1.093,1.094V83.6a12.576,12.576,0,0,1-5.177-.045,7.251,7.251,0,0,1-2.062-.87.431.431,0,1,0-.454.733,8.111,8.111,0,0,0,2.307.973,13.6,13.6,0,0,0,5.72.027l.172-.03a.431.431,0,0,0,.358-.425V81.314a.23.23,0,0,1,.348-.2l.009,0,11.106,6.326a.23.23,0,0,1,0,.39l-11.106,6.326-.009,0a.23.23,0,0,1-.348-.2V91.322a.431.431,0,0,0-.368-.426l-.522-.078a20.56,20.56,0,0,1-3.411-.79.431.431,0,1,0-.264.821,21.4,21.4,0,0,0,3.551.822l.152.023v2.279a1.092,1.092,0,0,0,1.65.939L125.3,88.585l.009,0a1.092,1.092,0,0,0,0-1.873L125.3,86.7l-11.108-6.327A1.09,1.09,0,0,0,113.637,80.22Z" transform="translate(-99.202 -76.776)"/>
    <path id="Path_183" data-name="Path 183" d="M1.358,173.3a1.332,1.332,0,0,0-1.336,1.254v.009a12.164,12.164,0,0,0,2.334,7.944,13.688,13.688,0,0,0,5.519,4.2.431.431,0,1,0,.344-.79,12.827,12.827,0,0,1-5.174-3.932,11.289,11.289,0,0,1-2.163-7.373v-.009a.481.481,0,0,1,.5-.445h.03a.479.479,0,0,1,.448.359l.005.021a9.948,9.948,0,0,0,1.414,3.13,8.053,8.053,0,0,0,.938,1.131.431.431,0,1,0,.61-.609,7.181,7.181,0,0,1-.837-1.01,9.083,9.083,0,0,1-1.29-2.857l0-.015A1.345,1.345,0,0,0,1.44,173.3H1.358Z" transform="translate(0.001 -173.303)"/>
  </g>
</svg>
