<svg id="youtube" xmlns="http://www.w3.org/2000/svg" xmlns:xlink="http://www.w3.org/1999/xlink" width="35.763" height="30" viewBox="0 0 35.763 30">
  <defs>
    <linearGradient id="linear-gradient" x1="0.246" y1="0.198" x2="0.769" y2="0.821" gradientUnits="objectBoundingBox">
      <stop offset="0" stop-color="#ff637b"/>
      <stop offset="1" stop-color="#f90217"/>
    </linearGradient>
    <linearGradient id="linear-gradient-2" x1="0.5" y1="0.353" x2="0.5" y2="0.977" gradientUnits="objectBoundingBox">
      <stop offset="0" stop-color="#f90217" stop-opacity="0"/>
      <stop offset="0.267" stop-color="#e7010f" stop-opacity="0.267"/>
      <stop offset="0.723" stop-color="#ce0004" stop-opacity="0.722"/>
      <stop offset="1" stop-color="#c50000"/>
    </linearGradient>
    <linearGradient id="linear-gradient-3" x1="0.654" y1="0.871" x2="0.339" y2="0.448" xlink:href="#linear-gradient-2"/>
    <linearGradient id="linear-gradient-4" x1="0.219" y1="0.452" x2="0.53" y2="0.716" gradientUnits="objectBoundingBox">
      <stop offset="0" stop-color="#ebeff0"/>
      <stop offset="1" stop-color="#e3e5e4"/>
    </linearGradient>
  </defs>
  <g id="Group_75" data-name="Group 75" transform="translate(0 0)">
    <path id="Path_200" data-name="Path 200" d="M34.138,45.69a4.605,4.605,0,0,0-3.357-3.118,57,57,0,0,0-25.8,0A4.605,4.605,0,0,0,1.622,45.69a34.141,34.141,0,0,0,0,20.8,4.605,4.605,0,0,0,3.357,3.118,57,57,0,0,0,25.8,0,4.605,4.605,0,0,0,3.357-3.118A34.141,34.141,0,0,0,34.138,45.69Z" transform="translate(0.001 -41.092)" fill="url(#linear-gradient)"/>
    <path id="Path_201" data-name="Path 201" d="M2.508,303.736a35.753,35.753,0,0,0,1.447,7.024A4.616,4.616,0,0,0,7.312,313.9a56.682,56.682,0,0,0,25.8,0,4.616,4.616,0,0,0,3.357-3.136,35.753,35.753,0,0,0,1.447-7.024Z" transform="translate(-2.331 -285.385)" fill="url(#linear-gradient-2)"/>
  </g>
  <path id="Path_202" data-name="Path 202" d="M204.231,165.984a4.632,4.632,0,0,0,3.376-3.136q.4-1.265.7-2.532l-8.989-8.989a1.879,1.879,0,0,0-.559-.537l-9.59-5.874a1.727,1.727,0,0,0-2.745,1.455V158.4a1.757,1.757,0,0,0,.674,1.551l7.426,7.426A58.1,58.1,0,0,0,204.231,165.984Z" transform="translate(-173.477 -137.472)" fill="url(#linear-gradient-3)"/>
  <path id="Path_203" data-name="Path 203" d="M196.895,149.183l-9.59-5.95a1.885,1.885,0,0,0-2.886,1.579v11.9a1.885,1.885,0,0,0,2.886,1.579l9.59-5.95A1.854,1.854,0,0,0,196.895,149.183Z" transform="translate(-171.531 -135.762)" fill="url(#linear-gradient-4)"/>
</svg>
